<?xml version="1.0" encoding="UTF-8"?>
<svg width="136px" height="162px" viewBox="0 0 136 162" version="1.1" xmlns="http://www.w3.org/2000/svg" xmlns:xlink="http://www.w3.org/1999/xlink">
    <!-- Generator: Sketch 58 (84663) - https://sketch.com -->
    <title>logo/small</title>
    <desc>Created with Sketch.</desc>
    <g id="logo/small" stroke="none" stroke-width="1" fill="none" fill-rule="evenodd">
        <g id="Group" fill-rule="nonzero">
            <polygon id="Combined-Shape" fill="#3A3A3C" points="8.292662 139 15.09158 126 15.114 126 41.808 77 3.12638804e-13 0 16.742299 0 59.612 76.999 59.613742 77 59.612 77 59.613742 77.001678 59.612 77.001 32.973 126 49.84 126 65.173392 100 88.173392 139 51.173392 139 42.173392 139"></polygon>
            <polygon id="Combined-Shape" fill="#F7941E" transform="translate(91.260088, 92.500000) rotate(180.000000) translate(-91.260088, -92.500000) " points="55.466054 162 62.264971 149 62.287392 149 88.981392 100 47.173392 23 63.915691 23 106.785392 99.999 106.787133 100 106.785392 100 106.787133 100.001678 106.785392 100.001 80.146392 149 97.013392 149 112.346784 123 135.346784 162 98.346784 162 89.346784 162"></polygon>
        </g>
    </g>
</svg>